#N canvas 252 254 1383 726 12;
#X obj 41 190 osc~, f 5;
#X obj 78 622 dac~;
#X obj 45 86 hsl 128 15 0 127 0 0 empty empty empty -2 -8 0 10 #fcfcfc #000000 #000000 0 1;
#X obj 42 102 mtof;
#X obj 41 157 +~, f 5;
#X obj 184 236 mis/scope;
#X floatatom 74 121 5 0 0 0 - - - 0;
#X obj 399 226 mis/fscope 2;
#X obj 327 69 hsl 300 15 0.1 10 0 0 empty empty rapporto\ frequenza\ di\ modulazione -2 -8 0 10 #fcfcfc #000000 #000000 0 1;
#X floatatom 629 83 5 0 0 0 - - - 0;
#X obj 78 582 *~;
#X obj 159 251 vsl 19 162 0 1 0 0 empty empty empty 0 -9 0 12 #fcfcfc #000000 #000000 0 1;
#X floatatom 159 454 5 0 0 0 - - - 0;
#X obj 78 602 *~ 0.5;
#X text 201 455 ampiezza;
#X obj 225 120 osc~;
#X obj 225 139 *~;
#X obj 79 209 *~ 0.5;
#X obj 324 118 t b f;
#X connect 0 0 17 0;
#X connect 2 0 3 0;
#X connect 3 0 4 0;
#X connect 3 0 6 0;
#X connect 3 0 15 0;
#X connect 4 0 0 0;
#X connect 8 0 9 0;
#X connect 8 0 18 0;
#X connect 10 0 13 0;
#X connect 11 0 10 1;
#X connect 11 0 12 0;
#X connect 13 0 1 0;
#X connect 13 0 1 1;
#X connect 15 0 16 0;
#X connect 16 0 4 1;
#X connect 17 0 7 0;
#X connect 17 0 5 0;
#X connect 17 0 10 0;
#X connect 18 1 16 1;
