#N canvas 224 231 1383 726 12;
#X obj 96 258 osc~;
#X obj 969 144 osc~;
#X obj 36 651 dac~;
#X obj 54 27 hsl 128 15 0 127 0 0 empty empty empty -2 -8 0 10 #fcfcfc #000000 #000000 0 1;
#X obj 43 66 mtof;
#X obj 31 179 +~;
#X obj 969 197 *~;
#X obj 902 76 hsl 400 15 0 200 0 0 empty empty freq\ modulazione -2 -8 0 10 #fcfcfc #000000 #000000 0 1;
#X obj 1020 172 hsl 250 15 0 1000 0 0 empty empty indice\ modulazione -2 -8 0 10 #fcfcfc #000000 #000000 0 1;
#X obj 233 287 mis/scope;
#X floatatom 1017 192 5 0 0 0 - - - 0;
#X floatatom 899 96 5 0 0 0 - - - 0;
#X floatatom 73 85 5 0 0 0 - - - 0;
#X obj 447 275 mis/fscope 2;
#X obj 227 52 hsl 300 15 0.1 10 0 0 empty empty rapporto\ frequenza\ di\ modulazione -2 -8 0 10 #fcfcfc #000000 #000000 0 1;
#X floatatom 328 84 5 0 0 0 - - - 0;
#X obj 50 150 *;
#X obj 204 79 t b f;
#X obj 44 547 *~;
#X obj 198 303 vsl 19 162 0 1 0 0 empty empty empty 0 -9 0 12 #fcfcfc #000000 #000000 0 1;
#X floatatom 196 481 5 0 0 0 - - - 0;
#X obj 40 593 *~ 0.5;
#X text 241 480 ampiezza;
#X floatatom 70 181 5 0 0 0 - - - 0;
#X connect 0 0 9 0;
#X connect 0 0 13 0;
#X connect 0 0 18 0;
#X connect 1 0 6 0;
#X connect 3 0 4 0;
#X connect 4 0 5 0;
#X connect 4 0 12 0;
#X connect 4 0 16 0;
#X connect 5 0 0 0;
#X connect 7 0 1 0;
#X connect 7 0 11 0;
#X connect 8 0 6 1;
#X connect 8 0 10 0;
#X connect 14 0 15 0;
#X connect 14 0 17 0;
#X connect 16 0 5 1;
#X connect 16 0 23 0;
#X connect 17 0 16 0;
#X connect 17 1 16 1;
#X connect 18 0 21 0;
#X connect 19 0 18 1;
#X connect 19 0 20 0;
#X connect 21 0 2 0;
#X connect 21 0 2 1;
