#N canvas 158 123 723 544 12;
#N canvas 440 478 573 362 (subpatch) 0;
#X array mioarray 20 float 3;
#A 0 0.200001 0.257143 0.328571 0.342857 0.342857 0.790055 0.271429 0.563536 0.128573 0.828729 0.585635 0.414365 -0.114281 -0.114281 0.68571 0.657139 0.599997 0.542855 0.614282 0;
#X coords 0 1 20 -1 200 140 1 0 0;
#X restore 134 80 graph;
#X floatatom 139 255 5 0 0 0 - - - 0;
#X obj 139 278 tabread mioarray;
#X floatatom 139 302 5 0 0 0 - - - 0;
#X obj 496 6 bng 19 250 50 0 empty empty empty 0 -10 0 12 #fcfcfc #000000 #000000;
#X obj 412 81 f 0, f 4;
#X obj 473 80 + 1;
#X floatatom 412 105 5 0 0 0 - - - 0;
#X floatatom 428 267 5 0 0 0 - - - 0;
#X obj 412 300 tabread mioarray;
#X floatatom 452 331 5 0 0 0 - - - 0;
#X obj 411 338 + 1;
#X obj 411 370 * 300;
#X obj 411 394 osc~;
#X obj 402 437 dac~;
#X obj 499 33 metro 1000;
#X obj 554 93 random 100;
#X obj 140 385 tabwrite mioarray;
#X floatatom 139 353 5 0 0 0 - - - 0;
#X floatatom 222 353 5 0 0 0 - - - 0;
#X text 410 130 contatore;
#X text 486 267 leggere dall'array;
#X connect 1 0 2 0;
#X connect 2 0 3 0;
#X connect 4 0 15 0;
#X connect 5 0 6 0;
#X connect 5 0 7 0;
#X connect 6 0 5 1;
#X connect 8 0 9 0;
#X connect 9 0 10 0;
#X connect 9 0 11 0;
#X connect 11 0 12 0;
#X connect 12 0 13 0;
#X connect 13 0 14 0;
#X connect 13 0 14 1;
#X connect 15 0 5 0;
#X connect 15 0 16 0;
#X connect 16 0 8 0;
#X connect 18 0 17 0;
#X connect 19 0 17 1;
