#N canvas 737 306 734 646 12;
#X floatatom 48 248 5 0 0 0 - - - 0;
#X obj 49 338 sines~;
#X obj 298 577 *~ 0.5;
#X obj 298 596 dac~;
#X obj 51 217 hsl 128 15 0 127 0 0 empty empty empty -2 -8 0 10 #fcfcfc #000000 #000000 0 1;
#X obj 48 279 mtof;
#X floatatom 48 307 5 0 0 0 - - - 0;
#X obj 48 62 metro-obj;
#X obj 48 32 tgl 19 0 empty empty empty 0 -10 0 12 #fcfcfc #000000 #000000 0 1;
#X obj 48 137 random-obj;
#X floatatom 133 121 5 0 0 0 - - - 0;
#X obj 324 393 vsl 19 162 0 1 0 0 empty empty empty 0 -9 0 12 #fcfcfc #000000 #000000 0 1;
#X obj 298 558 *~;
#X floatatom 300 43 5 0 0 0 - - - 0;
#X text 136 83 Choose random max number;
#X obj 136 62 hsl 162 19 0 127 0 0 empty empty empty -2 -10 0 12 #fcfcfc #000000 #000000 0 1;
#X obj 48 13 loadbang;
#X obj 136 24 hsl 162 19 16 512 0 0 empty empty empty -2 -10 0 12 #fcfcfc #000000 #000000 0 1;
#X text 135 3 Choose time;
#X text 321 365 Amp;
#X connect 0 0 5 0;
#X connect 1 0 12 0;
#X connect 2 0 3 0;
#X connect 2 0 3 1;
#X connect 4 0 0 0;
#X connect 5 0 6 0;
#X connect 6 0 1 0;
#X connect 7 0 9 0;
#X connect 8 0 7 0;
#X connect 9 0 4 0;
#X connect 10 0 9 1;
#X connect 11 0 12 1;
#X connect 12 0 2 0;
#X connect 13 0 7 1;
#X connect 15 0 10 0;
#X connect 16 0 8 0;
#X connect 17 0 13 0;
