#N canvas 571 118 857 840 12;
#X obj 202 442 osc~ 440;
#N canvas 0 22 450 278 (subpatch) 0;
#X array amp-array 16 float 3;
#A 0 199 0.457142 0.471424 0.557138 0.557138 0.542852 0.0999997 -0.385709 -0.657135 -0.742849 -0.699992 -0.557136 -0.214283 -0.199997 -0.385714 -0.214284;
#X coords 0 1 16 -1 200 140 1;
#X restore 288 290 graph;
#X obj 202 462 dac~;
#X obj 255 74 metro 1000;
#X obj 255 110 bng 19 250 50 0 empty empty empty 0 -10 0 12 #fcfcfc #000000 #000000;
#X obj 255 44 tgl 19 0 empty empty empty 0 -10 0 12 #fcfcfc #000000 #000000 0 1;
#X floatatom 378 252 5 0 0 0 - - - 0;
#X obj 255 141 counter-obj-max;
#X obj 255 233 tabread amp-array;
#X obj 255 266 vsl 19 162 0 1 0 0 empty empty empty 0 -9 0 12 #fcfcfc #000000 #000000 0 1;
#X obj 255 18 loadbang;
#X connect 0 0 2 0;
#X connect 0 0 2 1;
#X connect 3 0 4 0;
#X connect 4 0 7 0;
#X connect 5 0 3 0;
#X connect 7 0 8 0;
#X connect 8 0 9 0;
#X connect 8 0 6 0;
#X connect 9 0 0 1;
#X connect 10 0 5 0;
