#N canvas 73 123 1662 962 12;
#X obj 69 188 metro-obj;
#X obj 276 189 random-obj;
#X obj 172 189 counter-obj;
#X floatatom 148 131 5 0 512 0 - - - 0;
#X floatatom 353 128 5 0 0 0 - - - 0;
#X obj 356 553 freq-obj;
#X obj 353 832 multisound-obj;
#X obj 669 843 hsl 162 19 0 1 0 0 empty empty ampiezza -2 -10 0 12 #fcfcfc #000000 #000000 0 1;
#X obj 71 557 freq-obj;
#X obj 357 286 freq-obj;
#X obj 670 282 freq-obj;
#X obj 70 286 freq-obj;
#X obj 954 283 freq-obj;
#X obj 671 554 freq-obj;
#X obj 68 92 tgl 19 1 empty empty empty 0 -10 0 12 #fcfcfc #000000 #000000 1 1;
#X text 1029 199 battimenti 1 ogni 1 sec;
#X text 987 226 battimenti 2 ogni 1 sec - 1/2;
#X text 999 35 battimenti 4 ogni 1 sec 1/4;
#X text 999 64 battimenti 8 ogni 1 sec 1/8;
#X text 1012 102 battimenti 1.5 ogni 1 sec;
#X text 1012 136 battimenti 0.5 ogni 1 sec;
#X msg 960 224 2;
#X msg 959 197 1;
#X msg 958 34 4;
#X msg 959 65 8;
#X msg 959 101 1.5;
#X msg 959 135 0.5;
#X msg 919 224 0;
#X msg 919 197 0;
#X msg 921 34 0;
#X msg 921 66 0;
#X msg 920 100 0;
#X msg 919 134 0;
#X obj 448 248 +;
#X obj 488 247 +;
#X obj 535 248 +;
#X obj 574 248 +;
#X obj 618 249 +;
#X obj 660 249 +;
#X text 193 91 RELOAD;
#X text 92 91 STOP AND THEN;
#X obj 959 557 freq-obj;
#X text 1027 168 battimenti 6 ogni 1 sec;
#X msg 918 164 0;
#X msg 960 168 6;
#X obj 706 249 +, f 4;
#X obj 79 132 loadbang;
#X text 194 131 beat al secondo;
#X text 187 167 contatore;
#X text 400 128 max freq random;
#X connect 0 0 2 0;
#X connect 0 0 1 0;
#X connect 0 0 11 1;
#X connect 0 0 9 1;
#X connect 0 0 10 1;
#X connect 0 0 12 1;
#X connect 0 0 8 1;
#X connect 0 0 5 1;
#X connect 0 0 13 1;
#X connect 0 0 41 1;
#X connect 1 0 33 0;
#X connect 1 0 34 0;
#X connect 1 0 35 0;
#X connect 1 0 37 0;
#X connect 1 0 38 0;
#X connect 1 0 45 0;
#X connect 1 0 11 0;
#X connect 1 0 36 0;
#X connect 3 0 0 1;
#X connect 4 0 1 1;
#X connect 7 0 6 1;
#X connect 9 0 6 0;
#X connect 10 0 6 0;
#X connect 11 0 6 0;
#X connect 12 0 6 0;
#X connect 13 0 6 0;
#X connect 14 0 0 0;
#X connect 21 0 33 1;
#X connect 22 0 34 1;
#X connect 23 0 35 1;
#X connect 24 0 36 1;
#X connect 25 0 37 1;
#X connect 26 0 38 1;
#X connect 27 0 33 1;
#X connect 28 0 34 1;
#X connect 29 0 35 1;
#X connect 30 0 36 1;
#X connect 31 0 37 1;
#X connect 32 0 38 1;
#X connect 33 0 9 0;
#X connect 34 0 10 0;
#X connect 35 0 12 0;
#X connect 36 0 8 0;
#X connect 37 0 5 0;
#X connect 38 0 13 0;
#X connect 43 0 45 1;
#X connect 44 0 45 1;
#X connect 45 0 41 0;
#X connect 46 0 0 0;
