#N canvas 35 56 1662 994 12;
#N canvas 150 102 1447 930 visual 1;
#X obj 129 139 metro-obj;
#X obj 315 139 random-obj;
#X obj 222 139 counter-obj;
#X obj 410 510 freq-obj;
#X obj 133 507 freq-obj;
#X obj 409 224 freq-obj;
#X obj 688 225 freq-obj;
#X obj 131 225 freq-obj;
#X obj 970 226 freq-obj;
#X obj 687 511 freq-obj;
#X obj 688 107 +;
#X obj 714 107 +;
#X obj 837 108 +;
#X obj 738 107 +;
#X obj 763 107 +;
#X obj 787 108 +;
#X obj 973 512 freq-obj;
#X obj 812 108 +;
#X obj 129 108 inlet;
#X obj 411 106 inlet;
#X obj 450 106 inlet;
#X obj 490 106 inlet;
#X obj 530 106 inlet;
#X obj 570 106 inlet;
#X obj 609 106 inlet;
#X obj 649 106 inlet;
#X obj 417 874 outlet~;
#X obj 479 874 outlet~;
#X obj 541 874 outlet~;
#X obj 602 874 outlet~;
#X obj 664 874 outlet~;
#X obj 730 875 outlet~;
#X obj 789 874 outlet~;
#X obj 852 874 outlet~;
#X obj 969 805 multisound-obj;
#X obj 1104 779 hsl 162 19 0 1 0 0 empty empty ampiezza -2 -10 0 12 #fcfcfc #000000 #000000 0 1;
#X obj 207 109 inlet;
#X obj 372 106 inlet;
#X connect 0 0 2 0;
#X connect 0 0 1 0;
#X connect 0 0 7 1;
#X connect 0 0 5 1;
#X connect 0 0 8 1;
#X connect 0 0 4 1;
#X connect 0 0 3 1;
#X connect 0 0 9 1;
#X connect 0 0 16 1;
#X connect 0 0 6 1;
#X connect 1 0 10 0;
#X connect 1 0 11 0;
#X connect 1 0 12 0;
#X connect 1 0 14 0;
#X connect 1 0 15 0;
#X connect 1 0 17 0;
#X connect 1 0 13 0;
#X connect 1 0 7 0;
#X connect 3 0 31 0;
#X connect 3 0 34 0;
#X connect 4 0 30 0;
#X connect 4 0 34 0;
#X connect 5 0 27 0;
#X connect 5 0 34 0;
#X connect 6 0 28 0;
#X connect 6 0 34 0;
#X connect 7 0 26 0;
#X connect 7 0 34 0;
#X connect 8 0 29 0;
#X connect 8 0 34 0;
#X connect 9 0 32 0;
#X connect 10 0 5 0;
#X connect 11 0 6 0;
#X connect 12 0 8 0;
#X connect 13 0 4 0;
#X connect 14 0 3 0;
#X connect 15 0 9 0;
#X connect 16 0 33 0;
#X connect 16 0 34 0;
#X connect 17 0 16 0;
#X connect 18 0 0 0;
#X connect 19 0 10 1;
#X connect 20 0 11 1;
#X connect 21 0 12 1;
#X connect 22 0 13 1;
#X connect 23 0 14 1;
#X connect 24 0 15 1;
#X connect 25 0 17 1;
#X connect 35 0 34 1;
#X connect 36 0 0 1;
#X connect 37 0 1 1;
#X coords 0 -1 1 1 1200 800 1 100 100;
#X restore 128 160 pd visual;
#X obj 128 97 tgl 19 1 empty empty empty 0 -10 0 12 #fcfcfc #000000 #000000 0 1;
#X text 133 77 STOP AND THEN;
#X obj 128 20 loadbang;
#X floatatom 393 100 5 0 512 0 - - - 0;
#X floatatom 260 99 5 0 0 0 - - - 0;
#X text 391 79 max freq random;
#X text 177 95 RELOAD;
#X text 257 76 Tempo;
#X msg 1021 131 0;
#X msg 490 134 0;
#X msg 622 134 0;
#X msg 754 132 0;
#X msg 891 133 0;
#X msg 1150 132 0;
#X msg 1267 133 0;
#X text 405 135 Battimenti;
#X msg 524 134 1;
#X msg 658 134 2;
#X msg 790 132 3;
#X msg 923 133 4;
#X msg 1055 131 6;
#X msg 1188 132 0.5;
#X msg 1300 133 1.5;
#X text 481 110 1 / 1 sec;
#X text 622 113 2 / 1 sec;
#X text 751 111 3 / 1 sec;
#X text 892 111 4 / 1 sec;
#X text 1021 110 6 / 1 sec;
#X text 1148 110 0.5 / 1 sec;
#X text 1250 109 1.5 / 1 sec;
#X connect 1 0 0 0;
#X connect 3 0 1 0;
#X connect 4 0 0 2;
#X connect 5 0 0 1;
#X connect 9 0 0 7;
#X connect 10 0 0 3;
#X connect 11 0 0 4;
#X connect 12 0 0 5;
#X connect 13 0 0 6;
#X connect 14 0 0 8;
#X connect 15 0 0 9;
#X connect 17 0 0 3;
#X connect 18 0 0 4;
#X connect 19 0 0 5;
#X connect 20 0 0 6;
#X connect 21 0 0 7;
#X connect 22 0 0 8;
#X connect 23 0 0 9;
