#N canvas 374 415 828 420 12;
#X obj 125 27 inlet;
#X obj 118 361 outlet;
#X obj 567 40 f 0, f 4;
#X obj 611 40 + 1;
#X floatatom 433 118 5 0 16 0 - - - 0;
#X obj 570 132 t b f;
#X obj 511 187 div;
#X obj 569 192 mod;
#X floatatom 118 132 5 0 0 0 - - - 0;
#X msg 568 108 16;
#X floatatom 429 179 5 0 0 0 - - - 0;
#X obj 591 70 loadbang;
#X connect 0 0 2 0;
#X connect 2 0 3 0;
#X connect 2 0 4 0;
#X connect 3 0 2 1;
#X connect 4 0 6 0;
#X connect 4 0 7 0;
#X connect 5 0 6 0;
#X connect 5 0 7 0;
#X connect 5 1 6 1;
#X connect 5 1 7 1;
#X connect 6 0 10 0;
#X connect 7 0 8 0;
#X connect 8 0 1 0;
#X connect 9 0 5 0;
#X connect 11 0 9 0;
#X coords 0 -1 1 1 100 80 1 100 100;
