#N canvas 244 111 1728 981 12;
#X floatatom 544 51 5 0 0 0 - - - 0;
#X obj 547 369 sig~;
#X obj 200 472 *~;
#X obj 491 444 hsl 162 19 0.1 0.99 0 0 empty empty no\ more\ then\ 1 -2 -10 0 12 #fcfcfc #000000 #000000 0 1;
#X obj 200 516 *~;
#X obj 491 486 hsl 162 19 0.1 0.99 0 0 empty empty amp -2 -10 0 12 #fcfcfc #000000 #000000 0 1;
#X obj 200 572 hip~ 5;
#X msg 49 137 clear;
#X floatatom 152 144 5 0 0 0 - - - 0;
#N canvas 179 217 475 464 \$0-controls 0;
#X obj 118 293 outlet;
#X obj 209 294 outlet;
#X obj 300 295 outlet;
#X obj 122 232 hsl 162 19 5 5000 0 0 empty empty cut\ freq -2 -10 0 12 #fcfcfc #000000 #000000 0 1;
#X obj 123 188 hsl 162 19 500 2000 0 0 empty empty delay\ duration -2 -10 0 12 #fcfcfc #000000 #000000 0 1;
#X obj 124 142 hsl 162 19 0.1 0.99 0 0 empty empty feedback -2 -10 0 12 #fcfcfc #000000 #000000 0 1;
#X connect 3 0 0 0;
#X connect 4 0 1 0;
#X connect 5 0 2 0;
#X coords 0 -1 1 1 210 170 1 100 100;
#X restore 239 201 pd \$0-controls;
#N canvas 179 217 475 464 \$0-controls 0;
#X obj 118 293 outlet;
#X obj 209 294 outlet;
#X obj 300 295 outlet;
#X obj 122 232 hsl 162 19 5 5000 0 0 empty empty cut\ freq -2 -10 0 12 #fcfcfc #000000 #000000 0 1;
#X obj 123 188 hsl 162 19 500 2000 0 0 empty empty delay\ duration -2 -10 0 12 #fcfcfc #000000 #000000 0 1;
#X obj 124 142 hsl 162 19 0.1 0.99 0 0 empty empty feedback -2 -10 0 12 #fcfcfc #000000 #000000 0 1;
#X connect 3 0 0 0;
#X connect 4 0 1 0;
#X connect 5 0 2 0;
#X coords 0 -1 1 1 210 170 1 100 100;
#X restore 740 53 pd \$0-controls;
#X obj 25 17 inlet~;
#X obj 382 635 outlet~;
#X obj 546 393 vd~ \$0-controls1;
#X obj 25 165 delwrite~ \$0-controls1 10000;
#X floatatom 1191 320 5 0 0 0 - - - 0;
#X obj 1070 339 sig~;
#X obj 705 464 *~;
#X obj 971 437 hsl 162 19 0.1 0.99 0 0 empty empty no\ more\ then\ 1 -2 -10 0 12 #fcfcfc #000000 #000000 0 1;
#X obj 705 507 *~;
#X obj 972 482 hsl 162 19 0.1 0.99 0 0 empty empty amp -2 -10 0 12 #fcfcfc #000000 #000000 0 1;
#X obj 705 573 hip~ 5;
#X obj 1070 385 vd~ \$0-controls1;
#X obj 122 99 snapshot~;
#X obj 382 594 *~ 0.5;
#X obj 191 71 bng 19 250 50 0 empty empty empty 0 -10 0 12 #fcfcfc #000000 #000000;
#X obj 216 72 metro 1 120 permin;
#X obj 353 72 tgl 19 0 empty empty empty 0 -10 0 12 #fcfcfc #000000 #000000 0 1;
#X obj 202 123 abs;
#X text 549 68 converted signal in numbers, f 18;
#X floatatom 459 289 5 0 0 0 - - - 0;
#X floatatom 456 333 5 0 0 0 - - - 0;
#X floatatom 457 244 5 0 0 0 - - - 0;
#X floatatom 966 139 5 0 0 0 - - - 0;
#X floatatom 965 185 5 0 0 0 - - - 0;
#X floatatom 964 94 5 0 0 0 - - - 0;
#X floatatom 661 444 5 0 0 0 - - - 0;
#X floatatom 661 486 5 0 0 0 - - - 0;
#X floatatom 1146 437 5 0 0 0 - - - 0;
#X floatatom 1146 479 5 0 0 0 - - - 0;
#X connect 0 0 1 0;
#X connect 1 0 13 0;
#X connect 2 0 4 0;
#X connect 3 0 2 1;
#X connect 3 0 36 0;
#X connect 4 0 6 0;
#X connect 5 0 4 1;
#X connect 5 0 37 0;
#X connect 6 0 24 0;
#X connect 7 0 14 0;
#X connect 9 0 6 1;
#X connect 9 0 31 0;
#X connect 9 1 1 0;
#X connect 9 1 30 0;
#X connect 9 2 2 1;
#X connect 9 2 32 0;
#X connect 10 0 21 1;
#X connect 10 0 34 0;
#X connect 10 1 16 0;
#X connect 10 1 33 0;
#X connect 10 2 17 1;
#X connect 10 2 35 0;
#X connect 11 0 14 0;
#X connect 11 0 22 0;
#X connect 11 0 23 0;
#X connect 13 0 2 0;
#X connect 15 0 16 0;
#X connect 16 0 22 0;
#X connect 17 0 19 0;
#X connect 18 0 17 1;
#X connect 18 0 38 0;
#X connect 19 0 21 0;
#X connect 20 0 19 1;
#X connect 20 0 39 0;
#X connect 21 0 24 0;
#X connect 22 0 17 0;
#X connect 23 0 0 0;
#X connect 23 0 15 0;
#X connect 23 0 28 0;
#X connect 24 0 12 0;
#X connect 25 0 23 0;
#X connect 26 0 25 0;
#X connect 27 0 26 0;
#X connect 28 0 8 0;
#X connect 28 0 0 0;
#X connect 28 0 15 0;
#X coords 0 -1 1 1 1000 500 1 190 50;
