#N canvas 76 309 720 689 12;
#X obj 332 551 adc~;
#X obj 385 614 delwrite~ controls1 10000;
#X floatatom 264 248 5 0 0 0 - - - 0;
#X obj 339 318 sig~;
#X obj 338 342 vd~ controls1;
#X obj 199 414 *~;
#X obj 310 394 hsl 162 19 0.1 0.99 0 0 empty empty no\ more\ then\ 1 -2 -10 0 12 #fcfcfc #000000 #000000 0 1;
#X obj 199 457 *~;
#X obj 310 438 hsl 162 19 0.1 0.99 0 0 empty empty amp -2 -10 0 12 #fcfcfc #000000 #000000 0 1;
#X obj 198 506 hip~ 5;
#X obj 197 548 dac~;
#X obj 385 550 osc~ 440;
#X msg 409 586 clear;
#X floatatom 385 516 5 0 0 0 - - - 0;
#N canvas 179 217 475 464 \$0-controls 0;
#X obj 118 293 outlet;
#X obj 209 294 outlet;
#X obj 300 295 outlet;
#X obj 122 232 hsl 162 19 5 5000 0 0 empty empty cut\ freq -2 -10 0 12 #fcfcfc #000000 #000000 0 1;
#X obj 123 188 hsl 162 19 500 2000 0 0 empty empty delay\ duration -2 -10 0 12 #fcfcfc #000000 #000000 0 1;
#X obj 124 142 hsl 162 19 0.1 0.99 0 0 empty empty feedback -2 -10 0 12 #fcfcfc #000000 #000000 0 1;
#X connect 3 0 0 0;
#X connect 4 0 1 0;
#X connect 5 0 2 0;
#X coords 0 -1 1 1 210 170 1 100 100;
#X restore 239 14 pd \$0-controls;
#X connect 0 0 1 0;
#X connect 2 0 3 0;
#X connect 3 0 4 0;
#X connect 4 0 5 0;
#X connect 5 0 7 0;
#X connect 6 0 5 1;
#X connect 7 0 9 0;
#X connect 8 0 7 1;
#X connect 9 0 10 0;
#X connect 9 0 10 1;
#X connect 11 0 1 0;
#X connect 12 0 1 0;
#X connect 13 0 11 0;
#X connect 14 0 9 1;
#X connect 14 1 3 0;
#X connect 14 2 5 1;
