#N canvas 57 244 450 300 12;
#X obj 12 29 inlet;
#X obj 36 181 outlet;
#X obj 62 29 inlet;
#X floatatom 123 123 5 0 1000 0 - - - 0;
#X obj 36 101 bng 19 250 50 0 empty empty empty 0 -10 0 12 #fcfcfc #000000 #000000;
#X obj 35 71 metro 1 \$1 permin;
#X connect 0 0 5 0;
#X connect 2 0 3 0;
#X connect 3 0 5 1;
#X connect 4 0 1 0;
#X connect 5 0 4 0;
#X coords 0 -1 1 1 85 60 1 100 100;
