#N canvas 1113 609 450 300 12;
#X obj 46 249 dac~;
#X obj 17 58 inlet~;
#X obj 140 53 inlet;
#X floatatom 352 136 5 0 0 0 - - - 0;
#X obj 44 183 *~ \$1;
#X obj 43 117 *~;
#X obj 172 136 hsl 162 19 0 1 0 0 empty empty <0.125\ distorsioni -2 -10 0 12 #fcfcfc #000000 #000000 0 1;
#X floatatom 120 136 5 0 0 0 - - - 0;
#X text 334 116 ampiezza;
#X connect 1 0 5 0;
#X connect 2 0 3 0;
#X connect 2 0 5 1;
#X connect 4 0 0 0;
#X connect 4 0 0 1;
#X connect 5 0 4 0;
#X connect 6 0 4 1;
#X connect 6 0 7 0;
#X coords 0 -1 1 1 300 90 1 100 100;
