#N canvas 557 158 732 802 12;
#X obj 340 62 hsl 162 19 0 1 0 0 empty empty Ampiezza -2 -10 0 12 #fcfcfc #000000 #000000 0 1;
#X obj 55 61 hsl 162 19 20 22000 0 0 empty empty Frequenza -2 -10 0 12 #fcfcfc #000000 #000000 0 1;
#X obj 120 400 dac~;
#X obj 125 290 *~;
#X floatatom 27 131 5 0 0 0 - - - 0;
#X floatatom 382 123 5 0 0 0 - - - 0;
#X msg 60 91 \$1 1000;
#X msg 334 92 \$1 20;
#X text 36 299 comment;
#X obj 52 175 line~, f 8;
#X obj 325 151 line~;
#X obj 73 220 osc~ 60;
#X connect 0 0 7 0;
#X connect 1 0 6 0;
#X connect 3 0 2 0;
#X connect 3 0 2 1;
#X connect 6 0 4 0;
#X connect 6 0 9 0;
#X connect 7 0 5 0;
#X connect 7 0 10 0;
#X connect 9 0 11 0;
#X connect 10 0 3 1;
#X connect 11 0 3 0;
