#N canvas 95 296 715 559 12;
#X obj 288 324 dac~;
#X obj 301 252 *~ 0.01;
#X floatatom 399 232 14 0 1 2 GAIN - - 0;
#X obj 370 190 hsl 162 19 0 1 0 0 empty empty GAIN -2 -10 0 12 #2f004d #ffffff #000000 0 1;
#X obj 266 131 hsl 162 19 1 10 0 1 empty empty empty -2 -10 0 12 #fcfcfc #000000 #000000 0 1;
#X floatatom 267 175 10 0 1 2 - - - 0;
#X obj 218 253 *~;
#X obj 138 80 osc~ 220;
#X obj 148 113 *~ 1000;
#X obj 158 142 *~ 0.5;
#X obj 222 175 osc~;
#X obj 45 247 bng 19 250 50 0 empty empty empty 0 -10 0 12 #fcfcfc #000000 #000000;
#X obj 45 271 snapshot~;
#X floatatom 46 376 5 0 0 0 - - - 0;
#X obj 80 239 metro 100;
#X msg 43 167 1;
#X msg 86 168 0;
#X obj 133 185 tgl 19 0 empty empty empty 0 -10 0 12 #fcfcfc #000000 #000000 0 1;
#X floatatom 133 209 5 0 0 0 - - - 0;
#X obj 43 332 spigot;
#X obj 92 301 tgl 19 0 empty empty empty 0 -10 0 12 #fcfcfc #000000 #000000 0 1;
#X obj 138 42 tgl 19 0 empty empty empty 0 -10 0 12 #fcfcfc #000000 #000000 0 1;
#X connect 1 0 0 0;
#X connect 1 0 0 1;
#X connect 3 0 2 0;
#X connect 3 0 1 1;
#X connect 4 0 5 0;
#X connect 5 0 6 1;
#X connect 6 0 1 0;
#X connect 6 0 12 0;
#X connect 7 0 8 0;
#X connect 8 0 9 0;
#X connect 9 0 10 0;
#X connect 10 0 6 0;
#X connect 11 0 12 0;
#X connect 12 0 19 0;
#X connect 14 0 12 0;
#X connect 15 0 14 0;
#X connect 16 0 14 0;
#X connect 17 0 18 0;
#X connect 18 0 14 0;
#X connect 19 0 13 0;
#X connect 20 0 19 1;
#X connect 21 0 7 0;
