#N canvas 533 478 450 300 12;
#X obj 75 85 bng 19 250 50 0 empty empty empty 0 -10 0 12 #fcfcfc #000000 #000000;
#X msg 257 183 ciao;
#X msg 57 177 mondo;
#X obj 188 213 print;
#X msg 150 181 quantum;
#X obj 76 118 trigger bang bang bang;
#X text 266 113 nel trigger il bang esce prima dell'outlet doi destra, f 17;
#X connect 0 0 5 0;
#X connect 1 0 3 0;
#X connect 2 0 3 0;
#X connect 4 0 3 0;
#X connect 5 0 2 0;
#X connect 5 1 4 0;
#X connect 5 2 1 0;
