#N canvas 50 277 990 584 12;
#X msg 36 28 2;
#X msg 83 29 3;
#X obj 71 75 trigger bang float;
#X obj 71 118 *;
#X floatatom 71 142 5 0 0 0 - - - 0;
#X msg 244 35 2;
#X msg 291 36 3;
#X obj 279 82 trigger bang float;
#X obj 279 125 *;
#X floatatom 279 149 5 0 0 0 - - - 0;
#X floatatom 174 209 5 0 0 0 - - - 0;
#X obj 174 232 t f f;
#X obj 174 264 *;
#X floatatom 176 294 5 0 0 0 - - - 0;
#X msg 356 206 3;
#X obj 344 295 *;
#X floatatom 344 319 5 0 0 0 - - - 0;
#X msg 309 205 3;
#X text 504 62 prima viene eseguito linlet di destra poi tutti gli altr \, per accertarsi che il numero da moltiplicare é prima quello di destra e opoi quello di sinistra e non quello l'ultimo in memoria si usa il trigger, f 30;
#X text 102 364 il quadrato si può fare col trigger per accertarsi che ancghe se cambia il numero la sequenza temporale col trigger f f moltiplica il numero per se stesso e non per l'ultimo in memoria;
#X floatatom 658 228 5 0 0 0 - - - 0;
#X obj 607 226 bng 19 250 50 0 empty empty empty 0 -10 0 12 #fcfcfc #000000 #000000;
#X obj 607 250 float;
#X floatatom 607 288 5 0 0 0 - - - 0;
#X text 716 223 l'inlet di destra è freddo \, lò'inlet di sinistra è caldo questo permette di mettere il numero a destra in memoria, f 32;
#X connect 0 0 3 0;
#X connect 1 0 2 0;
#X connect 2 0 3 0;
#X connect 2 1 3 1;
#X connect 3 0 4 0;
#X connect 5 0 8 0;
#X connect 6 0 7 0;
#X connect 7 0 8 0;
#X connect 7 1 8 1;
#X connect 8 0 9 0;
#X connect 10 0 11 0;
#X connect 11 0 12 0;
#X connect 11 1 12 1;
#X connect 12 0 13 0;
#X connect 14 0 15 1;
#X connect 15 0 16 0;
#X connect 17 0 15 0;
#X connect 20 0 22 1;
#X connect 21 0 22 0;
#X connect 22 0 23 0;
