#N canvas 245 436 450 300 12;
#X obj 127 30 inlet;
#X obj 127 63 random \$1;
#X obj 186 30 inlet;
#X floatatom 127 122 5 0 0 0 - - - 0;
#X obj 129 180 outlet;
#X connect 0 0 1 0;
#X connect 1 0 3 0;
#X connect 2 0 1 1;
#X connect 3 0 4 0;
#X coords 0 -1 1 1 85 60 1 100 100;
