#N canvas 914 448 652 517 12;
#X floatatom 199 217 5 0 0 0 - - - 0;
#X obj 160 319 sines~;
#X obj 315 413 *~ 0.5;
#X obj 305 457 dac~;
#X obj 202 181 hsl 128 15 0 127 0 0 empty empty empty -2 -8 0 10 #fcfcfc #000000 #000000 0 1;
#X obj 201 252 mtof;
#X floatatom 201 276 5 0 0 0 - - - 0;
#X obj 48 62 metro-obj;
#X obj 45 22 tgl 19 0 empty empty empty 0 -10 0 12 #fcfcfc #000000 #000000 0 1;
#X obj 199 65 random-obj;
#X floatatom 247 25 5 0 0 0 - - - 0;
#X obj 381 180 vsl 19 162 0 1 0 0 empty empty empty 0 -9 0 12 #fcfcfc #000000 #000000 0 1;
#X obj 270 384 *~;
#X connect 0 0 5 0;
#X connect 1 0 12 0;
#X connect 2 0 3 0;
#X connect 2 0 3 1;
#X connect 4 0 0 0;
#X connect 5 0 6 0;
#X connect 6 0 1 0;
#X connect 7 0 9 0;
#X connect 8 0 7 0;
#X connect 9 0 4 0;
#X connect 10 0 9 1;
#X connect 11 0 12 1;
#X connect 12 0 2 0;
