#N canvas 85 177 1026 594 12;
#X obj 44 77 rfft~;
#X obj 888 118 tgl 15 0 empty empty empty 17 7 0 10 -262144 -1 -1 1
1;
#N canvas 31 351 1153 478 (subpatch) 0;
#X array \$0-spectrum 512 float 0;
#X coords 0 1 511 0 400 150 1 0 0;
#X restore 503 138 graph;
#X obj 44 104 *~;
#X obj 71 104 *~;
#X obj 44 155 biquad~ 0 0 0 0 1;
#X obj 575 20 block~ 4096;
#X obj 44 25 inlet~;
#X obj 44 133 sqrt~;
#X obj 44 289 tabwrite~ \$0-spectrum;
#X obj 296 233 metro 100;
#X obj 249 435 sel 0;
#X obj 249 465 pack \$0;
#X obj 253 188 t f f;
#X msg 249 494 \; \$1-spectrum const 0;
#X obj 44 226 *~ \$1;
#X obj 44 188 /~ 2048;
#X connect 0 0 3 0;
#X connect 0 0 3 1;
#X connect 0 1 4 0;
#X connect 0 1 4 1;
#X connect 1 0 13 0;
#X connect 3 0 8 0;
#X connect 4 0 8 0;
#X connect 5 0 16 0;
#X connect 7 0 0 0;
#X connect 8 0 5 0;
#X connect 10 0 9 0;
#X connect 11 0 12 0;
#X connect 12 0 14 0;
#X connect 13 0 11 0;
#X connect 13 1 10 0;
#X connect 15 0 9 0;
#X connect 16 0 15 0;
#X coords 0 -1 1 1 406 190 1 500 100;
